<?xml version="1.0" encoding="UTF-8" standalone="no"?>
<!-- Created with Inkscape (http://www.inkscape.org/) -->

<svg
   width="500"
   height="500"
   viewBox="0 0 132.29167 132.29167"
   version="1.1"
   id="svg5"
   inkscape:version="1.1.1 (3bf5ae0d25, 2021-09-20)"
   sodipodi:docname="poap.svg"
   inkscape:export-filename="C:\Users\y5523\OneDrive - Software AG\Active Projects\2021 11 POAPathon\poap2.png"
   inkscape:export-xdpi="95.71286"
   inkscape:export-ydpi="95.71286"
   xmlns:inkscape="http://www.inkscape.org/namespaces/inkscape"
   xmlns:sodipodi="http://sodipodi.sourceforge.net/DTD/sodipodi-0.dtd"
   xmlns:xlink="http://www.w3.org/1999/xlink"
   xmlns="http://www.w3.org/2000/svg"
   xmlns:svg="http://www.w3.org/2000/svg">
  <sodipodi:namedview
     id="namedview7"
     pagecolor="#ffffff"
     bordercolor="#cccccc"
     borderopacity="0"
     inkscape:pageshadow="0"
     inkscape:pageopacity="0"
     inkscape:pagecheckerboard="true"
     inkscape:document-units="px"
     showgrid="false"
     inkscape:zoom="2.0000001"
     inkscape:cx="115.25"
     inkscape:cy="269.24999"
     inkscape:window-width="2560"
     inkscape:window-height="1361"
     inkscape:window-x="-9"
     inkscape:window-y="-9"
     inkscape:window-maximized="1"
     inkscape:current-layer="layer7"
     units="px"
     inkscape:snap-grids="true" />
  <defs
     id="defs2">
    <rect
       x="201.49999"
       y="319.99999"
       width="115.5"
       height="63.499998"
       id="rect51076" />
    <linearGradient
       inkscape:collect="always"
       id="linearGradient18880">
      <stop
         style="stop-color:#76bf94;stop-opacity:1"
         offset="0"
         id="stop18876" />
      <stop
         style="stop-color:#549970;stop-opacity:1"
         offset="1"
         id="stop18878" />
    </linearGradient>
    <linearGradient
       inkscape:collect="always"
       id="linearGradient8529-8-3">
      <stop
         style="stop-color:#549970;stop-opacity:1;"
         offset="0"
         id="stop8533" />
      <stop
         style="stop-color:#76bf94;stop-opacity:1"
         offset="1"
         id="stop8535" />
    </linearGradient>
    <style
       id="style1963">.cls-1{fill:#fff;}</style>
    <linearGradient
       inkscape:collect="always"
       xlink:href="#linearGradient8529-8-3"
       id="linearGradient8531"
       x1="141.44005"
       y1="28.839191"
       x2="346.34467"
       y2="480.80444"
       gradientUnits="userSpaceOnUse" />
    <radialGradient
       inkscape:collect="always"
       xlink:href="#linearGradient18880"
       id="radialGradient18055"
       cx="83.373199"
       cy="149.03317"
       fx="83.373199"
       fy="149.03317"
       r="42.331043"
       gradientUnits="userSpaceOnUse"
       gradientTransform="matrix(1.2691189,0.19365573,-0.03111178,0.75543869,-17.615639,15.062978)" />
  </defs>
  <g
     inkscape:groupmode="layer"
     id="layer2"
     inkscape:label="Background"
     style="display:inline">
    <circle
       style="fill:#f9f3eb;fill-opacity:1;stroke:none;stroke-width:0.757023;stroke-linejoin:round;stroke-miterlimit:4;stroke-dasharray:0.757023, 3.02809;stroke-dashoffset:0;stroke-opacity:1;paint-order:normal"
       id="path1784"
       cx="66.542709"
       cy="65.616669"
       r="66.145836"
       inkscape:export-filename="C:\Users\y5523\OneDrive - Software AG\Active Projects\2021 11 POAPathon\path1784.png"
       inkscape:export-xdpi="95.71286"
       inkscape:export-ydpi="95.71286" />
  </g>
  <g
     inkscape:groupmode="layer"
     id="layer5"
     inkscape:label="Border 1"
     style="display:inline">
    <path
       id="path7873"
       style="fill:url(#linearGradient8531);fill-opacity:1;stroke:none;stroke-width:5.76185;stroke-linejoin:round;stroke-miterlimit:4;stroke-dasharray:5.76185, 23.0474;stroke-dashoffset:0;stroke-opacity:1;paint-order:normal"
       d="M 250,0 A 250,250 0 0 0 0,250 250,250 0 0 0 250,500 250,250 0 0 0 500,250 250,250 0 0 0 250,0 Z m 0,25 A 225,225.00001 0 0 1 475,250 225,225.00001 0 0 1 250,475 225,225.00001 0 0 1 25,250 225,225.00001 0 0 1 250,25 Z"
       transform="scale(0.26458334)" />
  </g>
  <g
     inkscape:groupmode="layer"
     id="layer3"
     inkscape:label="Ebene 3"
     style="display:inline">
    <g
       id="rect109734"
       transform="translate(3.0427083,72.23125)" />
    <path
       id="rect112313"
       style="fill:#000000;fill-opacity:1;stroke:#000000;stroke-width:3.8594;stroke-linejoin:round;stroke-miterlimit:4;stroke-dasharray:none;stroke-opacity:1"
       d="m 55.089193,62.67356 a 3.4297799,7.0116527 0 0 0 -3.429778,7.011487 3.4297799,7.0116527 0 0 0 0.0025,0.149349 h -4.920703 c -1.434037,0 -2.588513,1.140619 -2.588513,2.557442 v 8.055941 c 0,1.416822 1.154476,2.557441 2.588513,2.557441 h 2.614802 c 0.19989,0.325245 0.432227,0.629502 0.682518,0.899601 l 13.916319,15.017476 v 28.198793 c 0,1.41682 1.154477,2.55744 2.588513,2.55744 h 9.021879 A 64.712827,63.93604 0 0 0 128.88103,79.93629 H 68.032264 l -9.513291,-5.390107 v -2.154345 c 0,-0.280357 -0.0458,-0.549666 -0.129425,-0.8017 a 3.4297799,7.0116527 0 0 0 0.129425,-1.905091 3.4297799,7.0116527 0 0 0 -3.42978,-7.011487 z" />
    <path
       id="rect112313-9"
       style="display:inline;fill:#ffffff;fill-opacity:1;stroke:none;stroke-width:12.8708;stroke-linejoin:round;stroke-miterlimit:4;stroke-dasharray:none;stroke-opacity:1"
       d="m 207.74023,238.66602 c -5.84954,0.001 -10.59166,11.30616 -10.59179,25.25195 0,0 -0.002,0 -0.002,0 l -15.1875,0.53711 c -4.42644,0.15674 -12.61522,1.51888 -12.58984,9.21094 l 0.0957,29.01171 c 0.0215,6.50358 8.0656,9.21094 12.49414,9.21094 h 8.07422 c 0.61729,1.17133 1.33449,2.26555 2.10742,3.23828 2.16743,4.92233 32.2523,42.25399 53.00196,59.82422 V 474.5 c 0,5.54003 4.2712,10 9.57617,10 H 336.2441 A 250,250 0 0 0 491.18945,315.11719 C 490.15999,314.72413 489.05163,314.5 487.88867,314.5 H 263.42969 c -10.00985,-12.81852 -36.6217,-23.68992 -45.09961,-33.07617 -0.14018,-5.83515 -0.0466,-12.13152 0,-17.50586 -1.5e-4,-13.94579 -4.07232,-25.25322 -9.92188,-25.25195 z"
       transform="scale(0.26458334)" />
    <path
       id="path2490-0"
       style="display:inline;stroke-width:0.42627"
       d="m 344.32031,31.646484 c -11.79183,0.366778 -22.8677,7.019857 -28.52929,18.011719 -2.84449,5.461032 -3.62125,11.459785 -4.90625,17.335938 -0.73289,3.374271 -1.40469,6.767201 -2.15235,10.36914 l -4.81836,-1 c -12.32084,-2.452977 -24.61535,-5.179942 -37.01172,-7.248047 -9.69097,-1.615389 -17.61346,4.945012 -18.34179,14.746094 -0.31616,4.235376 -0.26136,8.489056 0.16406,12.714844 2.17375,21.596538 10.85585,39.946518 27.77344,53.958988 1.77155,1.49094 2.2545,2.70605 1.7832,4.97656 -7.40908,35.35866 -14.75334,70.72904 -22.0957,106.10156 -1.68754,7.99575 -1.90214,16.23195 -0.63282,24.30469 4.66274,29.74061 24.15073,47.76954 51.96875,55.49414 10.55989,2.93267 21.39089,4.8736 32.19727,6.90625 10.72262,2.43618 21.42849,4.96611 32.2832,6.47852 28.59426,3.98503 53.64951,-4.79868 69.76367,-30.22657 4.37742,-6.90063 7.45765,-14.542 9.0918,-22.54883 7.34238,-35.37251 14.68125,-70.74452 21.95703,-106.13086 0.47131,-2.2705 1.40056,-3.19276 3.61914,-3.85546 5.44958,-1.58131 10.5018,-3.65522 15.19336,-6.17578 A 250,250 0 0 0 420.06836,66.765625 c -2.09412,2.984617 -3.7245,6.355092 -4.75195,10.037109 -1.65219,5.860891 -2.71028,11.895402 -4.0293,17.851563 l -0.70313,3.382812 -18.13281,-3.763671 -18.13476,-3.763672 0.70312,-3.382813 c 1.16053,-5.989066 2.5913,-11.9462 3.4082,-17.980469 2.20884,-15.997303 -7.52984,-31.228689 -22.97656,-35.939453 -0.9665,-0.308307 -1.93606,-0.56867 -2.91015,-0.785156 -2.73965,-0.608936 -5.49952,-0.860032 -8.22071,-0.775391 z"
       transform="scale(0.26458334)" />
    <path
       style="stroke-width:0.112784"
       d="m 93.138776,19.067947 c 0.160456,-0.773012 0.346309,-1.540753 0.475836,-2.320186 A 2.3887717,2.3887717 0 0 0 91.802715,14.02297 c -1.24505,-0.311422 -2.622535,0.342585 -2.937855,1.545358 -0.423593,1.613406 -0.713842,3.261403 -1.049773,4.896461 -0.08527,0.410801 0.05751,0.638563 0.525404,0.72071 1.147205,0.200121 2.291765,0.429635 3.423343,0.710591 0.569652,0.141287 0.805605,-0.06316 0.911048,-0.571134 0.149051,-0.751191 0.306441,-1.504106 0.460535,-2.257706 z"
       id="path2265" />
    <path
       style="stroke-width:0.112784"
       d="m 106.07313,56.088127 c -0.36594,2.173667 0.68265,3.797777 2.67615,4.14937 1.81787,0.320895 3.57342,-0.978018 3.90561,-2.889154 a 3.4105975,3.4105975 0 0 0 -2.84031,-3.930034 3.2470603,3.2470603 0 0 0 -3.74145,2.669818 z"
       id="path2263" />
    <path
       style="stroke-width:0.112784"
       d="m 75.821495,27.768569 a 1.7064267,1.7064267 0 0 0 0.06902,0.27235 c 0.173056,0.353841 0.338111,0.712933 0.529377,1.056733 1.021608,1.837365 2.4822,3.230227 4.3131,4.254175 1.391181,0.778321 2.332088,1.911261 2.462232,3.542849 a 7.2994005,7.2994005 0 0 1 -0.174321,2.010715 q -3.13446,15.200451 -6.301855,30.392912 c -0.272546,1.313018 -0.438041,2.62637 -0.254462,3.967257 0.517226,3.76229 3.172146,6.632121 7.179101,7.511081 Q 91.90648,82.589683 100.2103,84.2051 c 4.35206,0.842319 8.23278,-1.177723 9.92184,-5.197369 0.60953,-1.449256 0.78551,-3.079504 1.1827,-4.621215 0.0976,-0.375983 -0.0244,-0.542987 -0.32958,-0.759543 -1.58772,-1.157771 -3.30238,-2.197906 -4.69215,-3.565699 C 97.509333,61.41309 94.63499,50.754748 95.907777,38.762896 c 0.193736,-1.821231 0.699779,-3.609888 1.062373,-5.412194 0.07816,-0.376568 0.156101,-0.752031 0.236787,-1.140746 z"
       id="path2261" />
    <path
       class="cls-1"
       d="m 75.821495,27.768569 21.381529,4.438215 c -0.08069,0.388715 -0.158622,0.764179 -0.236787,1.140746 -0.362571,1.802312 -0.868637,3.590965 -1.062373,5.412194 -1.27808,11.989602 1.601785,22.64909 10.385336,31.298378 1.38977,1.367794 3.10442,2.407928 4.69214,3.565699 0.29966,0.221162 0.42607,0.389083 0.32959,0.759544 -0.3972,1.54171 -0.57317,3.171959 -1.1827,4.621214 -1.68792,4.014124 -5.56864,6.034166 -9.92185,5.19737 Q 91.901184,82.593185 83.639774,80.77347 c -4.006955,-0.878959 -6.661874,-3.74879 -7.1791,-7.511081 -0.182471,-1.340656 -0.01831,-2.653134 0.254462,-3.967255 q 3.160928,-15.194957 6.301855,-30.392913 a 7.2994005,7.2994005 0 0 0 0.173589,-2.007357 c -0.130144,-1.631589 -1.071051,-2.764529 -2.462233,-3.542851 -1.830899,-1.023947 -3.292638,-2.411287 -4.3131,-4.254174 -0.191266,-0.3438 -0.35632,-0.702892 -0.529376,-1.056733 a 1.7064267,1.7064267 0 0 1 -0.06438,-0.272537 z m 7.929035,23.653748 c -0.358311,2.247824 0.71477,3.881624 2.756318,4.195964 1.814852,0.279953 3.545942,-1.062053 3.843901,-2.980294 0.284917,-1.827645 -1.011044,-3.564151 -2.884842,-3.859797 -1.747864,-0.275268 -3.44303,0.932517 -3.715377,2.644127 z"
       id="path1971"
       style="stroke-width:0.112784" />
    <path
       class="cls-1"
       d="m 106.07313,56.088127 a 3.2470603,3.2470603 0 0 1 3.74412,-2.671568 3.4105975,3.4105975 0 0 1 2.84031,3.930035 c -0.3322,1.911133 -2.08774,3.210051 -3.90562,2.889154 -1.99616,-0.349838 -3.04476,-1.973955 -2.67881,-4.147621 z"
       id="path1973"
       style="stroke-width:0.112784" />
    <path
       class="cls-1"
       d="m 93.136567,19.067489 c -0.156331,0.753135 -0.312661,1.50627 -0.46922,2.26051 -0.105213,0.506875 -0.341395,0.712417 -0.911048,0.571135 -1.129139,-0.281605 -2.273699,-0.511118 -3.423342,-0.710592 -0.467892,-0.08215 -0.609571,-0.309679 -0.525405,-0.720709 0.33925,-1.63437 0.62618,-3.283055 1.049774,-4.896462 0.315085,-1.201669 1.692806,-1.856783 2.937854,-1.545358 a 2.3887717,2.3887717 0 0 1 1.811898,2.724792 c -0.125533,0.776806 -0.311398,1.544544 -0.470566,2.316672 z"
       id="path1975"
       style="stroke-width:0.112784" />
    <path
       id="path1977"
       style="stroke-width:0.42627"
       class="cls-1"
       d="m 437.59961,84.759766 c -0.70816,2.948776 -1.29514,5.935586 -1.95703,8.896484 -0.38789,1.721866 -0.60968,3.483639 -0.89844,5.230469 -0.26211,1.556421 0.36375,2.251881 1.9668,2.541011 4.40341,0.78778 8.80141,1.66196 13.14258,2.72852 1.41461,0.34882 2.20452,0.0724 2.68359,-0.68359 a 250,250 0 0 0 -14.9375,-18.712894 z"
       transform="scale(0.26458334)" />
    <path
       d="m 83.75053,51.422317 c 0.273493,-1.717132 1.967512,-2.919392 3.722003,-2.642752 1.86938,0.294734 3.165339,2.031235 2.884842,3.859798 -0.300164,1.917783 -2.032175,3.264206 -3.843902,2.980293 C 84.4653,55.303941 83.392221,53.670141 83.75053,51.422317 Z"
       id="path1981"
       style="stroke-width:0.112784" />
    <path
       id="path116820"
       style="fill:#000000;fill-opacity:1;stroke:none;stroke-width:4.41603;stroke-linejoin:round;stroke-miterlimit:4;stroke-dasharray:none;stroke-opacity:1"
       d="m 68.262518,99.177412 a 13.493751,12.038542 0 0 0 -3.836458,0.501261 v 22.252907 c 0,0.27656 -0.04188,0.54302 -0.119888,0.79323 a 13.493751,12.038542 0 0 0 3.956346,0.52969 13.493751,12.038542 0 0 0 13.493751,-12.03855 13.493751,12.038542 0 0 0 -13.493751,-12.038538 z" />
    <path
       id="path116820-2-2"
       style="display:inline;fill:#000000;fill-opacity:1;stroke:none;stroke-width:12.1528;stroke-linejoin:round;stroke-miterlimit:4;stroke-dasharray:none;stroke-opacity:1"
       d="m 485.5,302.75 a 37.000002,33.249999 0 0 0 -37,33.25 37.000002,33.249999 0 0 0 22.46875,30.55469 250,250 0 0 0 23.13477,-62.89063 A 37.000002,33.249999 0 0 0 485.5,302.75 Z"
       transform="scale(0.26458334)" />
    <ellipse
       style="display:inline;fill:#000000;fill-opacity:1;stroke:none;stroke-width:2.4185;stroke-linejoin:round;stroke-miterlimit:4;stroke-dasharray:none;stroke-opacity:1"
       id="path116820-2-1"
       cx="75.935425"
       cy="120.64999"
       rx="8.4666672"
       ry="5.7546878" />
    <circle
       style="fill:#ffffff;fill-opacity:0.993569;stroke:none;stroke-width:4.26312;stroke-linejoin:round;stroke-miterlimit:4;stroke-dasharray:none;stroke-opacity:1"
       id="path118898"
       cx="87.973961"
       cy="50.006252"
       r="3.96875" />
  </g>
  <g
     inkscape:groupmode="layer"
     id="layer6"
     inkscape:label="Badge"
     style="display:inline">
    <g
       id="g20670"
       transform="matrix(0.96345479,0.11042719,-0.10704628,0.99388422,-33.678875,-8.7469148)">
      <path
         sodipodi:type="star"
         style="display:inline;opacity:1;fill:url(#radialGradient18055);fill-opacity:1;stroke:none;stroke-width:5.762;stroke-linejoin:round;stroke-miterlimit:4;stroke-dasharray:5.762, 23.048;stroke-dashoffset:0;stroke-opacity:1;paint-order:normal"
         id="path9147"
         inkscape:flatsided="false"
         sodipodi:sides="40"
         sodipodi:cx="95.150581"
         sodipodi:cy="150.44078"
         sodipodi:r1="38.109829"
         sodipodi:r2="42.344254"
         sodipodi:arg1="0.52479577"
         sodipodi:arg2="0.60333559"
         inkscape:rounded="0.03"
         inkscape:randomized="0"
         transform="matrix(0.53636054,0,0,0.27864774,33.90324,-3.3797167)"
         d="m 128.13183,169.53519 c -0.0794,0.13708 1.9769,4.80096 1.88703,4.93139 -0.0899,0.13044 -5.18027,-0.13006 -5.28011,-0.007 -0.0998,0.12298 1.20153,5.05111 1.09236,5.16588 -0.10918,0.11477 -5.09615,-0.93884 -5.21399,-0.83298 -0.11785,0.10585 0.39656,5.17688 0.27078,5.27316 -0.12579,0.0963 -4.88654,-1.72449 -5.01949,-1.63838 -0.13295,0.0861 -0.41816,5.17519 -0.55746,5.2506 -0.13929,0.0754 -4.5566,-2.46767 -4.70139,-2.40342 -0.14478,0.0643 -1.22258,5.04605 -1.37197,5.09875 -0.14938,0.0527 -4.11447,-3.15011 -4.26753,-3.10929 -0.15305,0.0408 -1.99691,4.79267 -2.15269,4.82135 -0.15579,0.0287 -3.571042,-3.75497 -3.728597,-3.7386 -0.157555,0.0164 -2.722064,4.42128 -2.880418,4.42524 -0.158354,0.004 -2.939665,-4.26737 -3.097841,-4.27585 -0.158176,-0.008 -3.380192,3.94102 -3.537215,3.92016 -0.157023,-0.0209 -2.235909,-4.6747 -2.390811,-4.70782 -0.154903,-0.0331 -3.955088,3.36372 -4.106915,3.31855 -0.151826,-0.0452 -1.477096,-4.96692 -1.62491,-5.02386 -0.147815,-0.0569 -4.432597,2.7036 -4.575488,2.63523 -0.142891,-0.0684 -0.681914,-5.13684 -0.819,-5.2162 -0.137087,-0.0794 -4.800961,1.9769 -4.931397,1.88703 -0.130437,-0.0899 0.13006,-5.18028 0.0071,-5.28011 -0.122983,-0.0998 -5.051109,1.20153 -5.16588,1.09235 -0.114771,-0.10917 0.938832,-5.09614 0.832981,-5.21398 -0.105852,-0.11785 -5.176882,0.39656 -5.273161,0.27078 -0.09628,-0.12579 1.724486,-4.88654 1.638372,-5.01949 -0.08611,-0.13295 -5.175182,-0.41816 -5.250599,-0.55746 -0.07542,-0.13929 2.467678,-4.5566 2.403423,-4.70139 -0.06426,-0.14479 -5.046053,-1.22259 -5.098751,-1.37197 -0.0527,-0.14938 3.150108,-4.11447 3.109293,-4.26753 -0.04082,-0.15305 -4.792673,-1.99691 -4.821354,-2.15269 -0.02868,-0.15579 3.754971,-3.57104 3.738602,-3.7286 -0.01637,-0.15755 -4.421282,-2.72206 -4.425239,-2.88042 -0.004,-0.15835 4.267374,-2.93966 4.275853,-3.09784 0.0085,-0.15817 -3.941024,-3.38019 -3.92016,-3.53721 0.02086,-0.15703 4.6747,-2.23591 4.70782,-2.39081 0.03312,-0.15491 -3.363726,-3.95509 -3.318555,-4.10692 0.04517,-0.15182 4.966921,-1.47709 5.023864,-1.62491 0.05694,-0.14781 -2.7036,-4.4326 -2.635235,-4.57549 0.06837,-0.14289 5.136839,-0.68191 5.216205,-0.819 0.07937,-0.13708 -1.976904,-4.80096 -1.887027,-4.93139 0.08988,-0.13044 5.18027,0.13006 5.280104,0.007 0.09983,-0.12298 -1.201529,-5.0511 -1.092354,-5.16588 0.109175,-0.11477 5.096147,0.93884 5.21399,0.83298 0.117843,-0.10585 -0.396569,-5.17688 -0.270784,-5.27316 0.125786,-0.0963 4.886539,1.72449 5.019491,1.63838 0.132951,-0.0861 0.418156,-5.17519 0.557454,-5.2506 0.139298,-0.0754 4.556608,2.46768 4.701394,2.40342 0.144786,-0.0643 1.222585,-5.04605 1.371966,-5.09875 0.149381,-0.0527 4.114479,3.15011 4.267534,3.10929 0.153055,-0.0408 1.99691,-4.79267 2.152695,-4.82135 0.155785,-0.0287 3.571037,3.75497 3.728593,3.7386 0.157555,-0.0164 2.722064,-4.42128 2.880417,-4.42524 0.158354,-0.004 2.939666,4.26738 3.097842,4.27585 0.158176,0.008 3.380191,-3.94102 3.537211,-3.92016 0.15703,0.0209 2.23591,4.6747 2.39082,4.70782 0.1549,0.0331 3.95508,-3.36372 4.10691,-3.31855 0.15183,0.0452 1.4771,4.96692 1.62491,5.02386 0.14781,0.057 4.4326,-2.7036 4.57549,-2.63523 0.14289,0.0684 0.68191,5.13684 0.819,5.2162 0.13708,0.0794 4.80096,-1.9769 4.9314,-1.88702 0.13043,0.0899 -0.13007,5.18027 -0.007,5.2801 0.12298,0.0998 5.05111,-1.20153 5.16588,-1.09235 0.11477,0.10917 -0.93883,5.09614 -0.83298,5.21399 0.10585,0.11784 5.17688,-0.39657 5.27316,-0.27079 0.0963,0.12579 -1.72449,4.88654 -1.63837,5.01949 0.0861,0.13295 5.17518,0.41816 5.25059,0.55746 0.0754,0.1393 -2.46767,4.55661 -2.40342,4.70139 0.0643,0.14479 5.04606,1.22259 5.09875,1.37197 0.0527,0.14938 -3.1501,4.11448 -3.10929,4.26753 0.0408,0.15306 4.79267,1.99691 4.82135,2.1527 0.0287,0.15578 -3.75497,3.57103 -3.7386,3.72859 0.0164,0.15755 4.42128,2.72206 4.42524,2.88042 0.004,0.15835 -4.26737,2.93966 -4.27585,3.09784 -0.008,0.15817 3.94102,3.38019 3.92016,3.53721 -0.0209,0.15703 -4.6747,2.23591 -4.70782,2.39081 -0.0331,0.15491 3.36372,3.95509 3.31855,4.10692 -0.0452,0.15182 -4.96692,1.4771 -5.02386,1.62491 -0.057,0.14781 2.7036,4.4326 2.63523,4.57549 -0.0684,0.14289 -5.13684,0.68191 -5.2162,0.819 z" />
      <path
         sodipodi:type="star"
         style="display:inline;opacity:1;fill:none;fill-opacity:1;stroke:#549970;stroke-width:1.23191;stroke-linejoin:round;stroke-miterlimit:4;stroke-dasharray:none;stroke-dashoffset:0;stroke-opacity:1;paint-order:normal"
         id="path9147-0"
         inkscape:flatsided="false"
         sodipodi:sides="40"
         sodipodi:cx="95.150581"
         sodipodi:cy="150.44078"
         sodipodi:r1="38.109829"
         sodipodi:r2="42.344254"
         sodipodi:arg1="0.52479577"
         sodipodi:arg2="0.60333559"
         inkscape:rounded="0.03"
         inkscape:randomized="0"
         transform="matrix(0.53636054,0,0,0.27864774,33.90324,-3.3797167)"
         d="m 128.13183,169.53519 c -0.0794,0.13708 1.9769,4.80096 1.88703,4.93139 -0.0899,0.13044 -5.18027,-0.13006 -5.28011,-0.007 -0.0998,0.12298 1.20153,5.05111 1.09236,5.16588 -0.10918,0.11477 -5.09615,-0.93884 -5.21399,-0.83298 -0.11785,0.10585 0.39656,5.17688 0.27078,5.27316 -0.12579,0.0963 -4.88654,-1.72449 -5.01949,-1.63838 -0.13295,0.0861 -0.41816,5.17519 -0.55746,5.2506 -0.13929,0.0754 -4.5566,-2.46767 -4.70139,-2.40342 -0.14478,0.0643 -1.22258,5.04605 -1.37197,5.09875 -0.14938,0.0527 -4.11447,-3.15011 -4.26753,-3.10929 -0.15305,0.0408 -1.99691,4.79267 -2.15269,4.82135 -0.15579,0.0287 -3.571042,-3.75497 -3.728597,-3.7386 -0.157555,0.0164 -2.722064,4.42128 -2.880418,4.42524 -0.158354,0.004 -2.939665,-4.26737 -3.097841,-4.27585 -0.158176,-0.008 -3.380192,3.94102 -3.537215,3.92016 -0.157023,-0.0209 -2.235909,-4.6747 -2.390811,-4.70782 -0.154903,-0.0331 -3.955088,3.36372 -4.106915,3.31855 -0.151826,-0.0452 -1.477096,-4.96692 -1.62491,-5.02386 -0.147815,-0.0569 -4.432597,2.7036 -4.575488,2.63523 -0.142891,-0.0684 -0.681914,-5.13684 -0.819,-5.2162 -0.137087,-0.0794 -4.800961,1.9769 -4.931397,1.88703 -0.130437,-0.0899 0.13006,-5.18028 0.0071,-5.28011 -0.122983,-0.0998 -5.051109,1.20153 -5.16588,1.09235 -0.114771,-0.10917 0.938832,-5.09614 0.832981,-5.21398 -0.105852,-0.11785 -5.176882,0.39656 -5.273161,0.27078 -0.09628,-0.12579 1.724486,-4.88654 1.638372,-5.01949 -0.08611,-0.13295 -5.175182,-0.41816 -5.250599,-0.55746 -0.07542,-0.13929 2.467678,-4.5566 2.403423,-4.70139 -0.06426,-0.14479 -5.046053,-1.22259 -5.098751,-1.37197 -0.0527,-0.14938 3.150108,-4.11447 3.109293,-4.26753 -0.04082,-0.15305 -4.792673,-1.99691 -4.821354,-2.15269 -0.02868,-0.15579 3.754971,-3.57104 3.738602,-3.7286 -0.01637,-0.15755 -4.421282,-2.72206 -4.425239,-2.88042 -0.004,-0.15835 4.267374,-2.93966 4.275853,-3.09784 0.0085,-0.15817 -3.941024,-3.38019 -3.92016,-3.53721 0.02086,-0.15703 4.6747,-2.23591 4.70782,-2.39081 0.03312,-0.15491 -3.363726,-3.95509 -3.318555,-4.10692 0.04517,-0.15182 4.966921,-1.47709 5.023864,-1.62491 0.05694,-0.14781 -2.7036,-4.4326 -2.635235,-4.57549 0.06837,-0.14289 5.136839,-0.68191 5.216205,-0.819 0.07937,-0.13708 -1.976904,-4.80096 -1.887027,-4.93139 0.08988,-0.13044 5.18027,0.13006 5.280104,0.007 0.09983,-0.12298 -1.201529,-5.0511 -1.092354,-5.16588 0.109175,-0.11477 5.096147,0.93884 5.21399,0.83298 0.117843,-0.10585 -0.396569,-5.17688 -0.270784,-5.27316 0.125786,-0.0963 4.886539,1.72449 5.019491,1.63838 0.132951,-0.0861 0.418156,-5.17519 0.557454,-5.2506 0.139298,-0.0754 4.556608,2.46768 4.701394,2.40342 0.144786,-0.0643 1.222585,-5.04605 1.371966,-5.09875 0.149381,-0.0527 4.114479,3.15011 4.267534,3.10929 0.153055,-0.0408 1.99691,-4.79267 2.152695,-4.82135 0.155785,-0.0287 3.571037,3.75497 3.728593,3.7386 0.157555,-0.0164 2.722064,-4.42128 2.880417,-4.42524 0.158354,-0.004 2.939666,4.26738 3.097842,4.27585 0.158176,0.008 3.380191,-3.94102 3.537211,-3.92016 0.15703,0.0209 2.23591,4.6747 2.39082,4.70782 0.1549,0.0331 3.95508,-3.36372 4.10691,-3.31855 0.15183,0.0452 1.4771,4.96692 1.62491,5.02386 0.14781,0.057 4.4326,-2.7036 4.57549,-2.63523 0.14289,0.0684 0.68191,5.13684 0.819,5.2162 0.13708,0.0794 4.80096,-1.9769 4.9314,-1.88702 0.13043,0.0899 -0.13007,5.18027 -0.007,5.2801 0.12298,0.0998 5.05111,-1.20153 5.16588,-1.09235 0.11477,0.10917 -0.93883,5.09614 -0.83298,5.21399 0.10585,0.11784 5.17688,-0.39657 5.27316,-0.27079 0.0963,0.12579 -1.72449,4.88654 -1.63837,5.01949 0.0861,0.13295 5.17518,0.41816 5.25059,0.55746 0.0754,0.1393 -2.46767,4.55661 -2.40342,4.70139 0.0643,0.14479 5.04606,1.22259 5.09875,1.37197 0.0527,0.14938 -3.1501,4.11448 -3.10929,4.26753 0.0408,0.15306 4.79267,1.99691 4.82135,2.1527 0.0287,0.15578 -3.75497,3.57103 -3.7386,3.72859 0.0164,0.15755 4.42128,2.72206 4.42524,2.88042 0.004,0.15835 -4.26737,2.93966 -4.27585,3.09784 -0.008,0.15817 3.94102,3.38019 3.92016,3.53721 -0.0209,0.15703 -4.6747,2.23591 -4.70782,2.39081 -0.0331,0.15491 3.36372,3.95509 3.31855,4.10692 -0.0452,0.15182 -4.96692,1.4771 -5.02386,1.62491 -0.057,0.14781 2.7036,4.4326 2.63523,4.57549 -0.0684,0.14289 -5.13684,0.68191 -5.2162,0.819 z" />
      <text
         xml:space="preserve"
         style="font-style:normal;font-variant:normal;font-weight:bold;font-stretch:normal;font-size:8.02198px;line-height:3.75;font-family:'Proxima Nova';-inkscape-font-specification:'Proxima Nova Bold';letter-spacing:0.0396875px;word-spacing:-0.0978958px;display:inline;fill:#000000;fill-opacity:0.169231;stroke:none;stroke-width:0;stroke-miterlimit:4;stroke-dasharray:none"
         x="68.485901"
         y="43.408562"
         id="text11179-9"
         transform="scale(1.043703,0.95812697)"><tspan
           sodipodi:role="line"
           id="tspan11177-8"
           style="font-style:normal;font-variant:normal;font-weight:bold;font-stretch:normal;font-family:'Proxima Nova';-inkscape-font-specification:'Proxima Nova Bold';fill:#000000;fill-opacity:0.169231;stroke:#000000;stroke-width:0;stroke-miterlimit:4;stroke-dasharray:none;stroke-opacity:0.55"
           x="68.485901"
           y="43.408562">I Voted</tspan></text>
      <text
         xml:space="preserve"
         style="font-style:normal;font-variant:normal;font-weight:bold;font-stretch:normal;font-size:8.02198px;line-height:3.75;font-family:'Proxima Nova';-inkscape-font-specification:'Proxima Nova Bold';letter-spacing:0.0396875px;word-spacing:-0.0978958px;display:inline;fill:#000000;fill-opacity:1;stroke:none;stroke-width:0.279929;stroke-miterlimit:4;stroke-dasharray:none"
         x="67.742729"
         y="42.565208"
         id="text11179"
         transform="scale(1.043703,0.95812697)"><tspan
           sodipodi:role="line"
           id="tspan11177"
           style="font-style:normal;font-variant:normal;font-weight:bold;font-stretch:normal;font-family:'Proxima Nova';-inkscape-font-specification:'Proxima Nova Bold';fill:#ffffff;fill-opacity:1;stroke:#000000;stroke-width:0.279929;stroke-miterlimit:4;stroke-dasharray:none;stroke-opacity:0.55"
           x="67.742729"
           y="42.565208">I Voted</tspan></text>
    </g>
    <text
       xml:space="preserve"
       transform="scale(0.26458334)"
       id="text51074"
       style="font-style:normal;font-weight:normal;font-size:40px;line-height:1.25;font-family:sans-serif;white-space:pre;shape-inside:url(#rect51076);fill:#000000;fill-opacity:1;stroke:none" />
    <text
       xml:space="preserve"
       style="font-style:normal;font-weight:normal;font-size:10.5833px;line-height:1.25;font-family:sans-serif;fill:#000000;fill-opacity:1;stroke:none;stroke-width:0.264583"
       x="61.92635"
       y="90.176743"
       id="text17701"><tspan
         sodipodi:role="line"
         id="tspan17699"
         style="stroke-width:0.264583"
         x="61.92635"
         y="90.176743" /></text>
  </g>
  <g
     inkscape:groupmode="layer"
     id="layer7"
     inkscape:label="Text"
     style="display:inline">
    <text
       xml:space="preserve"
       style="font-style:normal;font-weight:normal;font-size:7.05556px;line-height:0.85;font-family:sans-serif;display:inline;fill:#000000;fill-opacity:1;stroke:none;stroke-width:0.264583"
       x="24.998356"
       y="59.843632"
       id="text23996"><tspan
         sodipodi:role="line"
         style="font-style:normal;font-variant:normal;font-weight:bold;font-stretch:normal;font-size:7.05556px;font-family:'Proxima Nova';-inkscape-font-specification:'Proxima Nova Bold';text-align:center;text-anchor:middle;stroke-width:0.264583"
         x="24.998356"
         y="59.843632"
         id="tspan42246">BIP 2  </tspan><tspan
         sodipodi:role="line"
         style="font-style:normal;font-variant:normal;font-weight:normal;font-stretch:normal;font-size:5.64444px;font-family:'Proxima Nova';-inkscape-font-specification:'Proxima Nova';text-align:center;text-anchor:middle;stroke-width:0.264583"
         x="24.998356"
         y="65.840858"
         id="tspan68296">Bug Bounty</tspan><tspan
         sodipodi:role="line"
         style="font-style:normal;font-variant:normal;font-weight:normal;font-stretch:normal;font-size:5.64444px;font-family:'Proxima Nova';-inkscape-font-specification:'Proxima Nova';text-align:center;text-anchor:middle;stroke-width:0.264583"
         x="24.998356"
         y="71.838081"
         id="tspan34372">Program</tspan><tspan
         sodipodi:role="line"
         style="font-style:normal;font-variant:normal;font-weight:normal;font-stretch:normal;font-size:3.88056px;font-family:'Proxima Nova';-inkscape-font-specification:'Proxima Nova';text-align:center;text-anchor:middle;stroke-width:0.264583"
         x="24.998356"
         y="77.835312"
         id="tspan92160">2021-10-17</tspan></text>
  </g>
</svg>
